<svg width="33" height="33" viewBox="0 0 33 33" fill="none" xmlns="http://www.w3.org/2000/svg">
<g clip-path="url(#clip0_18_9)">
<path d="M22.6655 16.467L31.1231 9.119V23.7311L22.6655 16.467ZM11.7672 17.7114L14.7373 20.2895C15.2034 20.6855 15.8111 20.9248 16.4753 20.9248H16.4986H16.5165C17.182 20.9248 17.7898 20.6841 18.2614 20.2854L18.2572 20.2881L21.2272 17.71L30.2555 25.4636H2.74313L11.7672 17.7114ZM2.73075 7.37687H30.272L17.0431 18.8664C16.8944 18.984 16.7103 19.048 16.5206 19.0479H16.5014H16.4835C16.2932 19.0481 16.1084 18.9836 15.9596 18.865L15.961 18.8664L2.73075 7.37687ZM1.87688 9.11763L10.3331 16.4656L1.87688 23.7256V9.11763ZM31.5769 5.76125C31.2469 5.59625 30.8591 5.5 30.448 5.5H2.55612C2.1576 5.5001 1.76454 5.59283 1.408 5.77088L1.42312 5.764C0.996288 5.97453 0.636828 6.30022 0.38535 6.70429C0.133871 7.10835 0.000395104 7.57469 0 8.05063L0 24.7871C0.00072793 25.4645 0.270122 26.1139 0.749073 26.5928C1.22802 27.0718 1.87741 27.3411 2.55475 27.3419H30.4439C31.1212 27.3411 31.7706 27.0718 32.2496 26.5928C32.7285 26.1139 32.9979 25.4645 32.9986 24.7871V8.05063C32.9986 7.051 32.4225 6.18475 31.5837 5.76813L31.5686 5.76125H31.5769Z" fill="#6D28D9"/>
</g>
<defs>
<clipPath id="clip0_18_9">
<rect width="33" height="33" fill="white"/>
</clipPath>
</defs>
</svg>
