<svg width="79" height="79" viewBox="0 0 79 79" fill="none" xmlns="http://www.w3.org/2000/svg">
<rect x="0.5" y="0.5" width="78" height="78" rx="10.5" fill="white"/>
<path d="M76 58.8708C74.9376 59.2693 73.7648 59.2684 72.7029 58.8683C71.6411 58.4683 70.7636 57.6968 70.236 56.6993L59.7423 42.31L58.2215 40.2984L46.0457 56.7174C45.5499 57.673 44.72 58.4169 43.7112 58.8098C42.7025 59.2028 41.5839 59.2181 40.5646 58.8527L56.2535 37.9821L41.6596 19.1292C42.709 18.7542 43.8566 18.7493 44.9092 19.1151C45.9618 19.481 46.8552 20.1953 47.4388 21.1378L58.3158 35.705L69.2536 21.1982C69.7533 20.2595 70.5833 19.5357 71.586 19.1643C72.5887 18.7928 73.6941 18.7997 74.6921 19.1835L69.0285 26.636L61.3574 36.5374C61.1444 36.7259 60.9739 36.9568 60.8572 37.2151C60.7405 37.4735 60.6802 37.7533 60.6802 38.0364C60.6802 38.3195 60.7405 38.5993 60.8572 38.8576C60.9739 39.116 61.1444 39.3469 61.3574 39.5353L75.9696 58.8738L76 58.8708ZM3.00612 37.7227L4.28362 31.4646C7.7937 19.09 22.1017 13.9417 31.9445 21.6023C37.7085 26.0931 39.1472 32.4508 38.8643 39.6168H6.39454C5.86833 52.4136 15.1819 60.1405 27.09 56.1926C29.0204 55.5036 30.7484 54.3506 32.119 52.8368C33.4896 51.323 34.4601 49.4957 34.9436 47.5186C35.5732 45.51 36.6104 45.1662 38.5145 45.7452C38.1972 48.1954 37.3237 50.5423 35.9597 52.6094C34.5957 54.6765 32.7768 56.41 30.6397 57.6795C27.1095 59.5941 23.0593 60.353 19.068 59.8476C15.0767 59.3422 11.3488 57.5984 8.41724 54.8656C5.51862 51.6306 3.76677 47.5443 3.42891 43.2299C3.42891 42.5212 3.18558 41.8576 3.02133 41.2213C3.00652 40.0562 2.99942 38.891 3.00004 37.7257L3.00612 37.7227ZM6.43408 36.8602H35.7983C35.6158 27.583 29.7119 21.0021 21.8371 20.9418C13.071 20.8212 6.79908 27.2573 6.41279 36.8179L6.43408 36.8602Z" fill="black"/>
<rect x="0.5" y="0.5" width="78" height="78" rx="10.5" stroke="black"/>
</svg>
