<svg width="80" height="80" viewBox="0 0 80 80" fill="none" xmlns="http://www.w3.org/2000/svg">
<g clip-path="url(#clip0_5_260)">
<rect width="79.0822" height="79.0822" rx="13" fill="white"/>
<path d="M60.5473 0H18.5349C8.29835 0 0 8.29835 0 18.5349V60.5473C0 70.7838 8.29835 79.0822 18.5349 79.0822H60.5473C70.7838 79.0822 79.0822 70.7838 79.0822 60.5473V18.5349C79.0822 8.29835 70.7838 0 60.5473 0Z" fill="white"/>
<mask id="mask0_5_260" style="mask-type:luminance" maskUnits="userSpaceOnUse" x="18" y="8" width="43" height="63">
<path d="M18.8438 8.64961H60.0407V70.4326H18.8438V8.64961Z" fill="white"/>
</mask>
<g mask="url(#mask0_5_260)">
<path d="M29.1452 70.4326C34.8292 70.4326 39.4422 65.8195 39.4422 60.1355V49.8381H29.1452C23.4611 49.8381 18.8478 54.4515 18.8478 60.1355C18.8478 65.8195 23.4611 70.4326 29.1452 70.4326Z" fill="#0ACF83"/>
<path d="M18.8478 39.5411C18.8478 33.8571 23.4611 29.244 29.1452 29.244H39.4422V49.8381H29.1452C23.4611 49.8381 18.8478 45.2251 18.8478 39.5411Z" fill="#A259FF"/>
<path d="M18.8482 18.9467C18.8482 13.2626 23.4615 8.64961 29.1455 8.64961H39.4426V29.244H29.1455C23.4615 29.244 18.8482 24.6307 18.8482 18.9467Z" fill="#F24E1E"/>
<path d="M39.4422 8.64961H49.7393C55.4233 8.64961 60.0367 13.2626 60.0367 18.9467C60.0367 24.6307 55.4233 29.244 49.7393 29.244H39.4422V8.64961Z" fill="#FF7262"/>
<path d="M60.0367 39.5411C60.0367 45.2251 55.4233 49.8381 49.7393 49.8381C44.0553 49.8381 39.4422 45.2251 39.4422 39.5411C39.4422 33.8571 44.0553 29.244 49.7393 29.244C55.4233 29.244 60.0367 33.8571 60.0367 39.5411Z" fill="#1ABCFE"/>
</g>
</g>
<defs>
<clipPath id="clip0_5_260">
<rect width="79.0822" height="79.0822" rx="13" fill="white"/>
</clipPath>
</defs>
</svg>
