<svg width="77" height="77" viewBox="0 0 77 77" fill="none" xmlns="http://www.w3.org/2000/svg">
<rect width="77" height="77" rx="13" fill="white"/>
<path d="M6.22102 41.9005C4.34299 40.0224 4.34299 36.9776 6.22102 35.0995L35.0995 6.22102C36.9776 4.34299 40.0224 4.34299 41.9005 6.22102L70.7789 35.0995C72.657 36.9776 72.657 40.0224 70.7789 41.9005L41.9005 70.7789C40.0224 72.657 36.9776 72.657 35.0995 70.7789L6.22102 41.9005Z" fill="#EE513B"/>
<path d="M29.2333 12.1793L26.309 15.1037L33.862 22.6567C33.5564 23.3122 33.3858 24.0433 33.3858 24.8142C33.3858 27.0029 34.7609 28.8704 36.6943 29.5998V48.0764C34.7609 48.8057 33.3858 50.6732 33.3858 52.8619C33.3858 55.6859 35.6751 57.9752 38.499 57.9752C41.323 57.9752 43.6123 55.6859 43.6123 52.8619C43.6123 50.8777 42.4821 49.1573 40.8302 48.3098V29.625L48.0502 36.845C47.7595 37.4872 47.5978 38.2002 47.5978 38.9509C47.5978 41.7749 49.8871 44.0642 52.7111 44.0642C55.535 44.0642 57.8243 41.7749 57.8243 38.9509C57.8243 36.127 55.535 33.8376 52.7111 33.8376C52.1622 33.8376 51.6338 33.924 51.1381 34.084L43.384 26.3299C43.5324 25.8511 43.6123 25.3419 43.6123 24.8142C43.6123 21.9902 41.323 19.7009 38.499 19.7009C37.9713 19.7009 37.4624 19.7808 36.9833 19.9293L29.2333 12.1793Z" fill="white"/>
</svg>
