<svg width="79" height="79" viewBox="0 0 79 79" fill="none" xmlns="http://www.w3.org/2000/svg">
<g clip-path="url(#clip0_2_227)">
<path d="M62.7671 1.08218H16.2329C7.86538 1.08218 1.08219 7.86538 1.08219 16.2329V62.7671C1.08219 71.1346 7.86538 77.9178 16.2329 77.9178H62.7671C71.1346 77.9178 77.9178 71.1346 77.9178 62.7671V16.2329C77.9178 7.86538 71.1346 1.08218 62.7671 1.08218Z" fill="black" stroke="black" stroke-width="1.64384"/>
<path d="M65.2635 25.3538C62.6543 20.8833 59.1151 17.344 54.6451 14.7351C50.1743 12.1261 45.2936 10.8219 39.9994 10.8219C34.7059 10.8219 29.8236 12.1265 25.3538 14.7351C20.8833 17.3439 17.3443 20.8833 14.7351 25.3538C12.1264 29.8241 10.8219 34.7058 10.8219 39.9986C10.8219 46.3565 12.6769 52.0737 16.3877 57.1516C20.0981 62.23 24.8914 65.744 30.7672 67.694C31.4511 67.821 31.9574 67.7317 32.2867 67.4284C32.616 67.1248 32.7805 66.7445 32.7805 66.2891C32.7805 66.2131 32.7739 65.5296 32.7613 64.2376C32.7483 62.9457 32.7421 61.8186 32.7421 60.857L31.8683 61.0081C31.3111 61.1102 30.6083 61.1534 29.7597 61.1412C28.9116 61.1294 28.0311 61.0405 27.1194 60.8752C26.2074 60.7114 25.3591 60.3315 24.5739 59.7363C23.7891 59.1411 23.2319 58.362 22.9026 57.4002L22.5227 56.5259C22.2694 55.9439 21.8708 55.2973 21.3261 54.5886C20.7815 53.8793 20.2307 53.3984 19.6736 53.1451L19.4076 52.9547C19.2304 52.8282 19.0659 52.6755 18.9138 52.4984C18.7618 52.3213 18.6481 52.1441 18.5721 51.9666C18.496 51.7889 18.559 51.6432 18.762 51.5289C18.9649 51.4146 19.3316 51.3591 19.8638 51.3591L20.6233 51.4726C21.1299 51.5742 21.7565 51.8774 22.5039 52.3843C23.2509 52.8907 23.865 53.5491 24.3463 54.3592C24.9292 55.3979 25.6314 56.1894 26.4549 56.7341C27.2778 57.2787 28.1075 57.5506 28.9431 57.5506C29.7788 57.5506 30.5005 57.4872 31.1086 57.3612C31.7161 57.2345 32.286 57.0441 32.8181 56.791C33.0461 55.0934 33.6667 53.7892 34.6794 52.8775C33.2359 52.7258 31.9382 52.4974 30.7854 52.1936C29.6333 51.8894 28.4428 51.3957 27.2146 50.7112C25.9857 50.0277 24.9663 49.1788 24.1561 48.1662C23.3457 47.153 22.6806 45.8229 22.1618 44.177C21.6427 42.5305 21.3831 40.6311 21.3831 38.4783C21.3831 35.4132 22.3838 32.8048 24.3847 30.6518C23.4473 28.3474 23.5358 25.764 24.6504 22.902C25.3849 22.6738 26.4742 22.8451 27.9177 23.4147C29.3615 23.9847 30.4185 24.4729 31.09 24.8777C31.7614 25.2823 32.2994 25.6252 32.7047 25.9033C35.0607 25.2451 37.4919 24.9159 39.9992 24.9159C42.5064 24.9159 44.9382 25.2451 47.2942 25.9033L48.7379 24.992C49.7251 24.3839 50.8909 23.8266 52.2324 23.32C53.5748 22.8137 54.6013 22.6742 55.3108 22.9024C56.4501 25.7646 56.5516 28.3478 55.614 30.6522C57.6148 32.8052 58.6159 35.4142 58.6159 38.4787C58.6159 40.6315 58.3553 42.5369 57.837 44.1961C57.3181 45.8555 56.6473 47.1843 55.8244 48.1852C55.0006 49.186 53.9747 50.0282 52.7465 50.7116C51.518 51.3956 50.3271 51.8893 49.175 52.1935C48.0224 52.4976 46.7246 52.7262 45.2811 52.8782C46.5976 54.0175 47.256 55.8159 47.256 58.2726V66.2881C47.256 66.7434 47.4144 67.1236 47.7314 67.4274C48.0479 67.7306 48.5478 67.8199 49.2318 67.6928C55.1084 65.743 59.9017 62.2289 63.612 57.1506C67.3219 52.0726 69.1775 46.3554 69.1775 39.9976C69.1761 34.7054 67.871 29.8241 65.2635 25.3538Z" fill="white"/>
</g>
<defs>
<clipPath id="clip0_2_227">
<rect width="79" height="79" fill="white"/>
</clipPath>
</defs>
</svg>
