<svg width="28" height="28" viewBox="0 0 28 28" fill="none" xmlns="http://www.w3.org/2000/svg">
<path d="M14 2.62152C11.2297 2.62146 8.54973 3.60722 6.43973 5.40239C4.32974 7.19757 2.92741 9.68501 2.4837 12.4196C2.03998 15.1541 2.58384 17.9574 4.01794 20.3276C5.45204 22.6979 7.6828 24.4804 10.311 25.3564C10.8943 25.459 11.1125 25.109 11.1125 24.8022C11.1125 24.5257 11.0985 23.6064 11.0985 22.6299C8.16667 23.1689 7.40834 21.9147 7.17501 21.259C6.91617 20.6206 6.50573 20.0548 5.97917 19.6105C5.57084 19.3924 4.98751 18.8522 5.96401 18.8382C6.3372 18.8786 6.69515 19.0084 7.00751 19.2165C7.31987 19.4247 7.57743 19.7051 7.75834 20.034C7.91786 20.3206 8.13237 20.573 8.38958 20.7765C8.64679 20.9801 8.94165 21.1309 9.25725 21.2203C9.57286 21.3098 9.903 21.336 10.2288 21.2976C10.5545 21.2592 10.8695 21.1569 11.1557 20.9965C11.2062 20.4031 11.4707 19.8483 11.9 19.4355C9.30417 19.1439 6.59167 18.1382 6.59167 13.6757C6.57515 12.516 7.00301 11.3939 7.78751 10.5397C7.43087 9.53194 7.4726 8.42603 7.90417 7.44802C7.90417 7.44802 8.88067 7.14235 11.1125 8.64385C13.0215 8.1188 15.0368 8.1188 16.9458 8.64385C19.1765 7.12719 20.1542 7.44802 20.1542 7.44802C20.5859 8.426 20.6276 9.53196 20.2708 10.5397C21.0577 11.3925 21.486 12.5155 21.4667 13.6757C21.4667 18.1522 18.739 19.1439 16.1432 19.4355C16.4216 19.7177 16.636 20.0565 16.7719 20.4289C16.9078 20.8014 16.962 21.1987 16.9307 21.5939C16.9307 23.1549 16.9167 24.409 16.9167 24.8022C16.9167 25.109 17.1348 25.473 17.7182 25.3564C20.3415 24.4731 22.5657 22.6863 23.9935 20.3149C25.4213 17.9435 25.9599 15.1418 25.5131 12.4101C25.0664 9.67829 23.6633 7.19419 21.5544 5.4012C19.4455 3.60821 16.7681 2.62303 14 2.62152Z" fill="#6D28D9"/>
</svg>
