<svg width="91" height="91" viewBox="0 0 91 91" fill="none" xmlns="http://www.w3.org/2000/svg">
<path d="M16.7838 77.3528L10.3939 5.6875H80.6061L74.2077 77.3415L45.4574 85.3125L16.7838 77.3528Z" fill="#E44F26"/>
<path d="M45.5 79.2212L68.7334 72.7801L74.1991 11.5485H45.5V79.2212Z" fill="#F1662A"/>
<path d="M45.5 38.1262H33.8691L33.0671 29.1257H45.5V20.3357H45.4687H23.4609L23.6714 22.696L25.8298 46.9162H45.5V38.1262Z" fill="#EBEBEB"/>
<path d="M45.5 60.9529L45.4602 60.9643L35.672 58.3225L35.0464 51.3126H30.2888H26.2222L27.4536 65.1105L45.4602 70.1098L45.5 70.0984V60.9529Z" fill="#EBEBEB"/>
<path d="M45.4687 38.1262V46.9162H56.292L55.274 58.3168L45.4687 60.9615V70.107L63.4896 65.1105L63.6204 63.6261L65.6849 40.4865L65.9011 38.1262H63.5322H45.4687Z" fill="white"/>
<path d="M45.4687 20.3357V25.7957V29.1058V29.1257H66.6717H66.7002L66.8765 27.1521L67.2774 22.696L67.4879 20.3357H45.4687Z" fill="white"/>
</svg>
