<svg width="73" height="73" viewBox="0 0 73 73" fill="none" xmlns="http://www.w3.org/2000/svg">
<path d="M13 0.5H60C66.9036 0.5 72.5 6.09644 72.5 13V59.3415C72.5 66.2451 66.9036 71.8415 60 71.8415H13C6.09644 71.8415 0.5 66.2451 0.5 59.3415V13C0.5 6.09643 6.09644 0.5 13 0.5Z" fill="#F5DE19" stroke="black"/>
<path d="M49.7694 47.8413L49.7659 47.8398L48.0504 47.1112L48.0493 47.1108C45.5956 46.0754 43.6171 44.9335 42.2504 43.4085C40.8994 41.9009 40.1164 39.9851 40.1164 37.3299C40.1164 34.9144 41.0403 32.8047 42.6775 31.2957C44.3164 29.785 46.7008 28.8493 49.6617 28.8493H49.6796L49.6974 28.848C51.5863 28.7128 53.4734 29.1318 55.123 30.0523C56.0047 30.5443 56.7977 31.1678 57.4765 31.8966C58.2573 32.7348 57.9659 34.1208 56.8315 34.8394L56.1527 35.2694C55.6837 35.5666 55.1063 35.6168 54.4655 35.4779C53.8227 35.3386 53.1606 35.0168 52.5868 34.637C51.7239 34.066 50.7082 33.7662 49.672 33.7758C49.2004 33.7329 48.7247 33.7859 48.2741 33.9316C47.8144 34.0802 47.3906 34.3222 47.03 34.6425C46.6693 34.9627 46.3796 35.3541 46.1796 35.792C45.9796 36.2299 45.8737 36.7045 45.8689 37.1854V37.1904C45.8689 38.3429 46.2416 39.1969 47.0392 39.9171C47.7958 40.6004 48.9254 41.1524 50.3894 41.7834L50.3918 41.7844L52.1072 42.513C52.1072 42.513 52.1073 42.513 52.1073 42.513C55.0101 43.7468 57.2095 44.9644 58.6872 46.535C60.1425 48.082 60.9277 50.0049 60.9277 52.7309C60.9277 55.6447 59.7799 57.8663 57.8772 59.3711C55.961 60.8867 53.2387 61.7051 50.0606 61.7051H50.0448L50.0291 61.7061C47.5859 61.8603 45.1501 61.3106 43.0157 60.1236C41.7472 59.4181 40.6174 58.5055 39.6705 57.4308C38.8057 56.4494 39.1776 54.8959 40.4577 54.1571C41.7699 53.3998 43.5498 53.9411 44.9483 55.0159C45.1744 55.1896 45.4104 55.3517 45.6555 55.5012C46.9342 56.2809 48.4087 56.6867 49.9092 56.6723C51.4063 56.6719 52.6824 56.3013 53.5983 55.6271C54.5248 54.9452 55.0658 53.9612 55.0658 52.8136C55.0658 52.1621 54.9341 51.5925 54.6678 51.0856C54.4028 50.5811 54.0181 50.1648 53.5486 49.799C52.6296 49.0831 51.3125 48.5103 49.7694 47.8413ZM23.6007 61.6844H23.5872L23.5737 61.6851C21.5271 61.796 19.4948 61.2905 17.7442 60.2356C16.8282 59.6837 16.0119 58.9949 15.3211 58.1987C14.4573 57.203 14.8599 55.6358 16.167 54.8503C17.5147 54.0404 19.1715 54.6532 20.6779 55.7874C21.3766 56.3134 22.2244 56.6232 23.3087 56.6232C24.4843 56.6232 25.5692 56.3981 26.3465 55.6139C27.1205 54.8332 27.4848 53.6043 27.4848 51.8525V32.1665C27.4848 30.5485 28.7965 29.2368 30.4145 29.2368C32.0325 29.2368 33.3442 30.5485 33.3442 32.1665V51.9429C33.3442 55.3615 32.3339 57.7744 30.6584 59.3372C28.9768 60.9057 26.5539 61.6844 23.6007 61.6844Z" fill="black" stroke="black"/>
</svg>
