<svg width="28" height="28" viewBox="0 0 28 28" fill="none" xmlns="http://www.w3.org/2000/svg">
<path d="M23.8817 2.33335H4.11834C3.89618 2.33027 3.67559 2.37098 3.46916 2.45315C3.26274 2.53533 3.07452 2.65736 2.91527 2.81228C2.75601 2.96721 2.62883 3.15199 2.54099 3.35607C2.45316 3.56014 2.40638 3.77953 2.40334 4.00169V23.9984C2.40638 24.2205 2.45316 24.4399 2.54099 24.644C2.62883 24.8481 2.75601 25.0328 2.91527 25.1878C3.07452 25.3427 3.26274 25.4647 3.46916 25.5469C3.67559 25.6291 3.89618 25.6698 4.11834 25.6667H23.8817C24.1038 25.6698 24.3244 25.6291 24.5308 25.5469C24.7373 25.4647 24.9255 25.3427 25.0847 25.1878C25.244 25.0328 25.3712 24.8481 25.459 24.644C25.5469 24.4399 25.5936 24.2205 25.5967 23.9984V4.00169C25.5936 3.77953 25.5469 3.56014 25.459 3.35607C25.3712 3.15199 25.244 2.96721 25.0847 2.81228C24.9255 2.65736 24.7373 2.53533 24.5308 2.45315C24.3244 2.37098 24.1038 2.33027 23.8817 2.33335ZM9.43834 21.8634H5.93834V11.3634H9.43834V21.8634ZM7.68834 9.89335C7.20564 9.89335 6.74272 9.7016 6.4014 9.36029C6.06009 9.01897 5.86834 8.55605 5.86834 8.07335C5.86834 7.59066 6.06009 7.12774 6.4014 6.78642C6.74272 6.4451 7.20564 6.25335 7.68834 6.25335C7.94465 6.22429 8.20421 6.24968 8.45002 6.32788C8.69584 6.40609 8.92236 6.53533 9.11477 6.70714C9.30717 6.87896 9.46112 7.08948 9.56652 7.32492C9.67192 7.56035 9.72641 7.8154 9.72641 8.07335C9.72641 8.33131 9.67192 8.58635 9.56652 8.82179C9.46112 9.05723 9.30717 9.26775 9.11477 9.43957C8.92236 9.61138 8.69584 9.74062 8.45002 9.81882C8.20421 9.89702 7.94465 9.92242 7.68834 9.89335ZM22.0617 21.8634H18.5617V16.2284C18.5617 14.8167 18.06 13.895 16.7883 13.895C16.3948 13.8979 16.0116 14.0213 15.6903 14.2487C15.3691 14.4761 15.1252 14.7965 14.9917 15.1667C14.9004 15.4409 14.8608 15.7297 14.875 16.0184V21.8517H11.375V11.3517H14.875V12.8334C15.193 12.2816 15.6554 11.8271 16.2125 11.5188C16.7696 11.2104 17.4003 11.0598 18.0367 11.0834C20.37 11.0834 22.0617 12.5884 22.0617 15.82V21.8634Z" fill="#6D28D9"/>
</svg>
