<svg width="69" height="73" viewBox="0 0 69 73" fill="none" xmlns="http://www.w3.org/2000/svg">
<g clip-path="url(#clip0_2_185)">
<path d="M54.8219 1H14.1781C6.86977 1 0.945206 7.26801 0.945206 15V58C0.945206 65.732 6.86977 72 14.1781 72H54.8219C62.1302 72 68.0548 65.732 68.0548 58V15C68.0548 7.26801 62.1302 1 54.8219 1Z" fill="white" stroke="#134514" stroke-width="1.64384"/>
<path d="M35.44 61.7282L34.1654 61.2673C34.1654 61.2673 34.3211 54.3929 31.989 53.8996C30.4348 51.9916 32.2383 -27.0181 37.8344 53.6362C37.8344 53.6362 35.9066 54.6556 35.5646 56.3994C35.1913 58.1099 35.44 61.7282 35.44 61.7282Z" fill="#A6A385"/>
<path d="M36.1243 55.0837C36.1243 55.0837 47.2862 47.3207 44.6741 31.1698C42.156 19.4274 36.2176 15.5789 35.5647 14.0986C34.8497 13.046 34.1655 11.2042 34.1655 11.2042L34.6321 43.8668C34.6321 43.8999 33.6678 53.8661 36.1243 55.0837Z" fill="#499D4A"/>
<path d="M33.5128 55.5111C33.5128 55.5111 23.0348 47.9456 23.6568 34.6241C24.2474 21.3023 31.647 14.7566 33.0772 13.5725C34.0101 12.5199 34.0411 12.1249 34.1035 11.0724C34.7564 12.5527 34.6321 33.2098 34.7251 35.6436C35.0047 45.0181 34.2278 53.7353 33.5128 55.5111Z" fill="#58AA50"/>
</g>
<defs>
<clipPath id="clip0_2_185">
<rect width="69" height="73" fill="white"/>
</clipPath>
</defs>
</svg>
