<svg width="79" height="79" viewBox="0 0 79 79" fill="none" xmlns="http://www.w3.org/2000/svg">
<g clip-path="url(#clip0_2_217)">
<rect width="79" height="79" rx="10" fill="white"/>
<path d="M24.1822 56.3445H22.0434C21.9678 52.7344 21.7595 49.3405 21.419 46.1603H21.3999L18.1437 56.3445H16.5153L13.2785 46.1603H13.2599C13.0197 49.2137 12.8685 52.6084 12.8057 56.3445H10.8562C10.9818 51.8012 11.2976 47.5419 11.8022 43.5661H14.453L17.5382 52.9556H17.5572L20.6614 43.5661H23.1977C23.7532 48.223 24.0813 52.4828 24.1822 56.3445ZM33.4576 46.9166C32.5868 51.6421 31.4378 55.0757 30.012 57.219C28.9011 58.8688 27.684 59.6946 26.3585 59.6946C26.0052 59.6946 25.5692 59.588 25.0526 59.3764V58.2369C25.3051 58.2733 25.6014 58.294 25.942 58.294C26.5611 58.294 27.0587 58.1237 27.438 57.7823C27.8918 57.3666 28.1187 56.8991 28.1187 56.3821C28.1187 56.0275 27.9418 55.3026 27.5889 54.2049L25.2418 46.9162H27.343L29.0275 52.3675C29.4061 53.6052 29.564 54.4694 29.5008 54.9616C30.422 52.5014 31.0655 49.8187 31.432 46.9158H33.4576V46.9166Z" fill="#5D87A1"/>
<path d="M61.9268 56.3445H55.8514V43.5661H57.8951V54.7715H61.9268V56.3445ZM54.2611 56.6532L51.912 55.494C52.1203 55.3229 52.3195 55.1377 52.4989 54.9232C53.4974 53.7503 53.9954 52.0157 53.9954 49.7183C53.9954 45.4908 52.3365 43.376 49.0174 43.376C47.3898 43.376 46.1202 43.9124 45.2122 44.9857C44.2146 46.1595 43.7166 47.8878 43.7166 50.1729C43.7166 52.4191 44.1579 54.0669 45.0411 55.1121C45.8491 56.0589 47.0671 56.533 48.6958 56.533C49.3033 56.533 49.8609 56.4586 50.3688 56.3085L53.4271 58.089L54.2611 56.6532ZM46.6513 53.7875C46.1339 52.9551 45.8751 51.6186 45.8751 49.7757C45.8751 46.5583 46.8526 44.9477 48.8095 44.9477C49.8324 44.9477 50.5821 45.3329 51.0615 46.1016C51.5781 46.9352 51.838 48.2598 51.838 50.077C51.838 53.3209 50.8598 54.943 48.9041 54.943C47.8808 54.9435 47.1311 54.5595 46.6513 53.7875ZM42.8259 52.8026C42.8259 53.8863 42.4283 54.7752 41.634 55.4716C40.8388 56.1651 39.7726 56.5127 38.4364 56.5127C37.1866 56.5127 35.9749 56.1135 34.802 55.3191L35.3512 54.2219C36.3605 54.7273 37.2743 54.9786 38.0946 54.9786C38.8646 54.9786 39.4663 54.8079 39.9028 54.4694C40.3388 54.1297 40.5987 53.6532 40.5987 53.0506C40.5987 52.2914 40.0693 51.6425 39.0981 51.0991C38.2025 50.6073 36.4113 49.579 36.4113 49.579C35.4405 48.8715 34.9545 48.1118 34.9545 46.8604C34.9545 45.8247 35.3169 44.9886 36.0422 44.3526C36.7684 43.7141 37.7053 43.3958 38.8538 43.3958C40.04 43.3958 41.1182 43.7137 42.0894 44.3427L41.5968 45.4404C40.7661 45.0874 39.9461 44.9109 39.1373 44.9109C38.4823 44.9109 37.9764 45.0684 37.6247 45.3846C37.2701 45.6995 37.0515 46.1024 37.0515 46.5967C37.0515 47.3522 37.5921 48.0093 38.5897 48.5636C39.4973 49.0562 41.3331 50.1022 41.3331 50.1022C42.3287 50.8085 42.8259 51.5611 42.8259 52.8026Z" fill="#F8981D"/>
<path d="M64.4924 39.2861C63.2567 39.2547 62.2999 39.3791 61.4969 39.7188C61.2651 39.8114 60.8964 39.8114 60.8642 40.1044C60.9894 40.2284 61.0039 40.4284 61.1126 40.5995C61.2977 40.9083 61.6205 41.3236 61.9152 41.5402C62.2388 41.7882 62.5636 42.0336 62.9042 42.2498C63.5047 42.6213 64.1854 42.8375 64.7706 43.2078C65.1115 43.4231 65.4504 43.7017 65.7918 43.9335C65.9596 44.0571 66.0671 44.2575 66.2849 44.3348V44.2877C66.1757 44.1488 66.1447 43.948 66.0377 43.7934L65.574 43.3462C65.126 42.7445 64.5693 42.2192 63.9688 41.7877C63.4745 41.4472 62.3934 40.9843 62.1929 40.4148L62.1615 40.3834C62.5012 40.3516 62.9042 40.2284 63.227 40.1338C63.7522 39.9953 64.2312 40.0267 64.7702 39.8883C65.0181 39.8263 65.264 39.7486 65.5128 39.6721V39.5329C65.2335 39.2547 65.0343 38.8852 64.7404 38.6224C63.9543 37.9434 63.0881 37.2792 62.1929 36.7233C61.7135 36.4138 61.0969 36.2146 60.5865 35.9513C60.4026 35.8583 60.0926 35.8125 59.9843 35.6579C59.7074 35.3182 59.5516 34.871 59.3507 34.4689C58.9044 33.6204 58.4709 32.6789 58.0857 31.7817C57.8071 31.1799 57.6377 30.579 57.298 30.0223C55.7068 27.398 53.9789 25.8085 51.3231 24.2483C50.7523 23.9235 50.0733 23.785 49.348 23.6147L48.1895 23.5536C47.9424 23.4453 47.6948 23.1514 47.4791 23.0126C46.598 22.4571 44.3295 21.2532 43.6814 22.8427C43.264 23.8474 44.2989 24.8352 44.6543 25.3448C44.9167 25.6985 45.2569 26.1011 45.4404 26.5028C45.5491 26.7652 45.5796 27.0438 45.6883 27.3211C45.9355 28.0005 46.1665 28.7564 46.4914 29.3904C46.6608 29.7136 46.8455 30.0533 47.0621 30.3459C47.1861 30.517 47.4018 30.5927 47.4489 30.8716C47.2336 31.1791 47.2167 31.6432 47.0931 32.0292C46.5376 33.7737 46.7546 35.9348 47.5419 37.2168C47.7882 37.6028 48.3759 38.4525 49.162 38.1269C49.858 37.8491 49.7038 36.9692 49.9039 36.1976C49.9497 36.0112 49.9196 35.8889 50.0121 35.7666V35.7968C50.2275 36.2286 50.4448 36.6448 50.6445 37.0779C51.1235 37.8338 51.9575 38.6216 52.6522 39.1452C53.0221 39.4246 53.3151 39.9023 53.7784 40.073V40.0267H53.7478C53.654 39.8883 53.5168 39.8263 53.3936 39.7188C53.1151 39.4407 52.8068 39.101 52.5906 38.7927C51.9434 37.9277 51.3706 36.9701 50.8623 35.9819C50.6135 35.5025 50.399 34.9784 50.1985 34.4999C50.1051 34.3151 50.1051 34.0366 49.9501 33.9436C49.7179 34.2829 49.3794 34.5767 49.2099 34.9925C48.9161 35.6575 48.8855 36.4754 48.7764 37.3259L48.7157 37.3557C48.2238 37.2321 48.0527 36.7233 47.8659 36.2915C47.4035 35.1946 47.3258 33.434 47.7271 32.1685C47.8345 31.8449 48.2995 30.8258 48.1139 30.5174C48.0209 30.2219 47.7118 30.0537 47.5423 29.8211C47.3431 29.5284 47.1249 29.1581 46.9861 28.8333C46.6158 27.9691 46.4294 27.0115 46.0305 26.1478C45.8441 25.7452 45.5205 25.3286 45.2585 24.9579C44.9643 24.5413 44.6407 24.2479 44.408 23.754C44.3311 23.5842 44.2232 23.3064 44.3468 23.1217C44.377 22.9977 44.4398 22.9514 44.563 22.9204C44.763 22.7514 45.3346 22.9663 45.535 23.0593C46.1074 23.2907 46.586 23.5069 47.0638 23.8309C47.2799 23.9859 47.5118 24.2793 47.7891 24.3566H48.1139C48.607 24.464 49.1628 24.3863 49.627 24.526C50.4448 24.7889 51.1859 25.1745 51.8504 25.5907C53.8726 26.8731 55.5402 28.6953 56.666 30.8716C56.8508 31.2262 56.9293 31.5511 57.0979 31.921C57.4232 32.6781 57.8253 33.4501 58.1481 34.1911C58.4725 34.9165 58.7816 35.6571 59.2449 36.2596C59.476 36.5837 60.4042 36.7535 60.8204 36.9234C61.1283 37.0618 61.6077 37.185 61.8854 37.3548C62.4107 37.6784 62.9339 38.05 63.4278 38.4058C63.6737 38.591 64.4466 38.977 64.4924 39.2861ZM48.7438 25.8692C48.5306 25.867 48.3181 25.8931 48.1118 25.9469V25.9779H48.1416C48.266 26.2246 48.4822 26.3957 48.6363 26.6111C48.7607 26.8586 48.8686 27.1041 48.9905 27.3513L49.0203 27.3207C49.2381 27.1665 49.3463 26.9194 49.3463 26.5487C49.2525 26.4395 49.2381 26.3329 49.1599 26.2246C49.069 26.0701 48.8686 25.9932 48.7438 25.8692Z" fill="#5D87A1"/>
<path d="M65.9629 56.3424H66.2828V54.7769H65.803L65.4116 55.8452L64.9863 54.7769H64.5243V56.3424H64.8264V55.1513H64.8433L65.2888 56.3424H65.519L65.9629 55.1513V56.3424ZM63.3861 56.3424H63.7245V55.0422H64.1676V54.7765H62.9244V55.0422H63.3852L63.3861 56.3424Z" fill="#F8981D"/>
</g>
<rect x="0.5" y="0.5" width="78" height="78" rx="9.5" stroke="black"/>
<defs>
<clipPath id="clip0_2_217">
<rect width="79" height="79" rx="10" fill="white"/>
</clipPath>
</defs>
</svg>
