<svg width="81" height="81" viewBox="0 0 81 81" fill="none" xmlns="http://www.w3.org/2000/svg">
<rect width="81" height="81" rx="13" fill="white"/>
<path d="M21.4645 29.5057H35.3288V30.5987H22.7301V38.8828H34.581V39.9759H22.7301V49.0653H35.5014V50.1584H21.4645V29.5057ZM36.5945 29.5057H38.0902L44.6484 38.5952L51.2642 29.5057L60.3537 18L45.3963 39.5732L53.1051 50.1584H51.5518L44.5909 40.4936L37.5724 50.1584H36.0767L43.843 39.5732L36.5945 29.5057ZM53.6804 30.5987V29.5057H69.5007V30.5987H62.1946V50.1584H60.929V30.5987H53.6804ZM4.09091 29.5057H5.64418L27.62 62.1818L18.5305 50.1584L5.41407 31.0589L5.35654 50.1584H4.09091V29.5057ZM69.3857 48.7202C69.6733 48.7202 69.8459 48.5476 69.8459 48.2599C69.8459 47.9723 69.6733 47.7997 69.3857 47.7997C69.098 47.7997 68.9254 47.9723 68.9254 48.2599C68.9254 48.5476 69.1555 48.7202 69.3857 48.7202ZM70.6513 47.5121C70.6513 48.2599 71.2266 48.7777 72.032 48.7777C72.8949 48.7777 73.4126 48.2599 73.4126 47.3395V44.1754H72.7223V47.3395C72.7223 47.8572 72.4922 48.0874 72.032 48.0874C71.6293 48.0874 71.3416 47.8572 71.3416 47.4545H70.6513V47.5121ZM74.2756 47.4545C74.3331 48.2599 74.9659 48.7777 76.0014 48.7777C77.0369 48.7777 77.7273 48.2599 77.7273 47.397C77.7273 46.7067 77.3246 46.3615 76.4616 46.1314L75.9439 46.0163C75.3686 45.9013 75.1385 45.6712 75.1385 45.3835C75.1385 44.9808 75.4837 44.6932 76.0589 44.6932C76.5767 44.6932 76.9219 44.9233 76.9794 45.3835H77.6697C77.6122 44.6357 76.9794 44.1179 76.0589 44.1179C75.081 44.1179 74.4482 44.6357 74.4482 45.4411C74.4482 46.0739 74.7933 46.4766 75.5987 46.6491L76.174 46.7642C76.7493 46.8793 77.0369 47.1094 77.0369 47.4545C77.0369 47.8572 76.6342 48.1449 76.0589 48.1449C75.4837 48.1449 75.0234 47.8572 74.9659 47.4545H74.2756Z" fill="black"/>
</svg>
