<svg width="76" height="76" viewBox="0 0 76 76" fill="none" xmlns="http://www.w3.org/2000/svg">
<path d="M60.3425 1H15.5753C7.5256 1 1 7.5256 1 15.5753V60.3425C1 68.3922 7.5256 74.9178 15.5753 74.9178H60.3425C68.3922 74.9178 74.9178 68.3922 74.9178 60.3425V15.5753C74.9178 7.5256 68.3922 1 60.3425 1Z" fill="white" stroke="black" stroke-width="1.64384"/>
<path d="M66.3968 34.2163H66.5732C66.7179 34.2163 66.7456 34.1149 66.7456 34.0557C66.7456 33.9004 66.639 33.9004 66.5797 33.9004H66.3981L66.3968 34.2163ZM66.1823 33.7188H66.5732C66.7074 33.7188 66.9706 33.7188 66.9706 34.0189C66.9706 34.2281 66.8364 34.2715 66.7561 34.2979C66.9127 34.3084 66.9232 34.411 66.9443 34.5558C66.9548 34.6466 66.9719 34.8032 67.0035 34.8559H66.7627C66.7561 34.8032 66.7192 34.5137 66.7192 34.4979C66.7034 34.4334 66.6811 34.4018 66.6008 34.4018H66.4021V34.8572H66.1823V33.7188ZM65.7124 34.2847C65.7124 34.7559 66.0928 35.1375 66.56 35.1375C67.0311 35.1375 67.4115 34.748 67.4115 34.2847C67.4115 33.8122 67.0259 33.4372 66.5587 33.4372C66.0981 33.4372 65.7111 33.807 65.7111 34.2834L65.7124 34.2847ZM67.5747 34.2873C67.5747 34.8453 67.118 35.3007 66.5613 35.3007C66.0086 35.3007 65.5479 34.8506 65.5479 34.2873C65.5479 33.7135 66.0191 33.274 66.5613 33.274C67.1075 33.274 67.5734 33.7149 67.5734 34.2873H67.5747Z" fill="#689F63"/>
<path fill-rule="evenodd" clip-rule="evenodd" d="M21.8229 37.9032C21.8229 37.661 21.6952 37.4386 21.4862 37.3182L15.912 34.111C15.8179 34.0557 15.7124 34.0267 15.6056 34.0228H15.5479C15.4411 34.0267 15.3356 34.0557 15.24 34.111L9.66594 37.3182C9.45827 37.4393 9.32877 37.6617 9.32877 37.9038L9.34101 46.5424C9.34101 46.6622 9.40286 46.7741 9.50814 46.8333C9.6108 46.8965 9.73977 46.8965 9.84242 46.8333L13.1563 44.9355C13.3655 44.811 13.4932 44.591 13.4932 44.3512V40.3155C13.4932 40.0747 13.6208 39.8523 13.8294 39.7325L15.2402 38.92C15.345 38.8594 15.46 38.8294 15.5771 38.8294C15.6924 38.8294 15.8101 38.8592 15.912 38.9198L17.3221 39.7321C17.5308 39.8519 17.659 40.0743 17.659 40.3151V44.3506C17.659 44.5901 17.7884 44.8112 17.9966 44.9349L21.3083 46.8313C21.4123 46.8932 21.5417 46.8932 21.6452 46.8313C21.7474 46.7721 21.8121 46.6602 21.8121 46.5405L21.8229 37.9032ZM48.1267 42.4009C48.1267 42.4611 48.0947 42.5168 48.0425 42.5465L46.1279 43.6501C46.0759 43.68 46.0116 43.68 45.9598 43.6501L44.0449 42.5465C43.9923 42.5166 43.9607 42.461 43.9607 42.4009V40.1905C43.9607 40.1302 43.9923 40.0747 44.0436 40.0444L45.9572 38.9389C46.0098 38.9086 46.0743 38.9086 46.1269 38.9389L48.0418 40.0444C48.0944 40.0747 48.126 40.1302 48.126 40.1905L48.1267 42.4009ZM48.6439 26.0289C48.5394 25.9707 48.4123 25.9723 48.3091 26.0325C48.2064 26.093 48.143 26.2036 48.143 26.3233V34.8777C48.143 34.9619 48.0983 35.0396 48.0253 35.0817C47.953 35.1238 47.8628 35.1238 47.7898 35.0817L46.3934 34.2774C46.1855 34.1572 45.9294 34.1572 45.7207 34.2774L40.1445 37.4956C39.9362 37.6154 39.8076 37.8378 39.8076 38.0773V44.5155C39.8076 44.7563 39.9362 44.9774 40.1445 45.0985L45.7207 48.3189C45.9289 48.4386 46.1852 48.4386 46.3941 48.3189L51.9702 45.0972C52.1782 44.9761 52.3071 44.755 52.3071 44.5141V28.4688C52.3071 28.2245 52.1742 27.9998 51.961 27.8805L48.6439 26.0289ZM67.2126 40.1323C67.4197 40.012 67.5472 39.7899 67.5472 39.5504V37.99C67.5472 37.75 67.4196 37.5285 67.212 37.4077L61.6714 34.1912C61.4622 34.0702 61.2055 34.0702 60.9963 34.1912L55.4215 37.409C55.2122 37.5301 55.0846 37.7512 55.0846 37.992V44.4275C55.0846 44.6697 55.2148 44.8934 55.4241 45.0132L60.9634 48.1704C61.1674 48.2875 61.4174 48.2889 61.624 48.1744L64.9747 46.3121C65.08 46.2529 65.1471 46.141 65.1471 46.02C65.1471 45.8989 65.0826 45.7857 64.9774 45.7265L59.3683 42.5074C59.263 42.4482 59.1986 42.3363 59.1986 42.2166V40.1977C59.1986 40.0772 59.2617 39.9661 59.367 39.9061L61.1121 38.8993C61.2161 38.8388 61.3437 38.8388 61.4477 38.8993L63.1941 39.9061C63.2981 39.9653 63.3626 40.0772 63.3626 40.1969V41.7841C63.3626 41.9039 63.427 42.0157 63.531 42.0763C63.635 42.1355 63.764 42.1355 63.8679 42.075L67.2126 40.1323Z" fill="#333333"/>
<path fill-rule="evenodd" clip-rule="evenodd" d="M61.2523 39.8312C61.2917 39.8079 61.3412 39.8079 61.3812 39.8312L62.4512 40.4485C62.4912 40.4716 62.5157 40.5143 62.5157 40.5603V41.7961C62.5157 41.8422 62.4912 41.8848 62.4512 41.908L61.3812 42.5252C61.3412 42.5485 61.2917 42.5485 61.2523 42.5252L60.183 41.908C60.1422 41.8848 60.1172 41.8422 60.1172 41.7961V40.5603C60.1172 40.5143 60.1408 40.4716 60.1816 40.4485L61.2523 39.8312Z" fill="#689F63"/>
<path d="M30.56 34.929L24.7743 38.2685C24.5579 38.3931 24.4246 38.6238 24.4247 38.8735V45.5572C24.4246 45.8069 24.5579 46.0376 24.7743 46.1622L30.5605 49.5043C30.7769 49.6289 31.0432 49.6289 31.2595 49.5043L37.0447 46.1622C37.2604 46.0371 37.3933 45.8066 37.3935 45.5572V38.8735C37.3934 38.6237 37.2598 38.393 37.0433 38.2685L31.2589 34.929C31.042 34.8045 30.7754 34.8045 30.5585 34.929" fill="url(#paint0_linear_2_150)"/>
<path d="M24.568 45.9815C24.6241 46.0547 24.6941 46.1162 24.774 46.1622L29.7371 49.029L30.5639 49.5042C30.686 49.5744 30.8264 49.6062 30.9668 49.5955C31.0133 49.5916 31.0593 49.5832 31.1041 49.5704L37.2063 38.3971C37.1589 38.3462 37.1041 38.3027 37.0437 38.268L33.2553 36.0804L31.2527 34.9282C31.1958 34.8958 31.1349 34.8713 31.0714 34.8553L24.568 45.9815Z" fill="url(#paint1_linear_2_150)"/>
<path d="M30.8396 34.8395C30.7412 34.8494 30.646 34.8799 30.5602 34.929L24.7909 38.2589L31.012 49.59C31.0996 49.5775 31.1839 49.5484 31.2606 49.5043L37.0463 46.1622C37.223 46.0599 37.3464 45.8856 37.3841 45.6849L31.0422 34.8508C30.9956 34.8415 30.9482 34.8369 30.9007 34.8369C30.8815 34.8369 30.8622 34.8378 30.843 34.8396" fill="url(#paint2_linear_2_150)"/>
<defs>
<linearGradient id="paint0_linear_2_150" x1="967.567" y1="171.243" x2="253.836" y2="1295.68" gradientUnits="userSpaceOnUse">
<stop offset="0.3" stop-color="#3E863D"/>
<stop offset="0.5" stop-color="#55934F"/>
<stop offset="0.8" stop-color="#5AAD45"/>
</linearGradient>
<linearGradient id="paint1_linear_2_150" x1="75.049" y1="1215.7" x2="1351.45" y2="521.571" gradientUnits="userSpaceOnUse">
<stop offset="0.57" stop-color="#3E863D"/>
<stop offset="0.72" stop-color="#619857"/>
<stop offset="1" stop-color="#76AC64"/>
</linearGradient>
<linearGradient id="paint2_linear_2_150" x1="24.7909" y1="772.493" x2="1284.11" y2="772.493" gradientUnits="userSpaceOnUse">
<stop offset="0.16" stop-color="#6BBF47"/>
<stop offset="0.38" stop-color="#79B461"/>
<stop offset="0.47" stop-color="#75AC64"/>
<stop offset="0.7" stop-color="#659E5A"/>
<stop offset="0.9" stop-color="#3E863D"/>
</linearGradient>
</defs>
</svg>
