<svg width="29" height="29" viewBox="0 0 29 29" fill="none" xmlns="http://www.w3.org/2000/svg">
<path d="M23.2363 18.4392L20.1671 18.0888C19.8062 18.0464 19.4404 18.0863 19.0972 18.2056C18.754 18.3249 18.4422 18.5204 18.1854 18.7775L15.9621 21.0008C12.5319 19.2563 9.74374 16.4681 7.99917 13.0379L10.2346 10.8025C10.7542 10.2829 11.0079 9.55792 10.9233 8.82084L10.5729 5.77584C10.5044 5.18638 10.2215 4.64271 9.77812 4.24832C9.33472 3.85393 8.76176 3.63638 8.16834 3.63709H6.07792C4.7125 3.63709 3.57667 4.77292 3.66125 6.13834C4.30167 16.4575 12.5546 24.6983 22.8617 25.3388C24.2271 25.4233 25.3629 24.2875 25.3629 22.9221V20.8317C25.375 19.6113 24.4567 18.5842 23.2363 18.4392Z" fill="#6D28D9"/>
</svg>
