<svg width="79" height="79" viewBox="0 0 79 79" fill="none" xmlns="http://www.w3.org/2000/svg">
<path d="M39.1241 7.55931C36.5184 7.57166 34.0311 7.79323 31.8413 8.18082C25.3917 9.32015 24.2215 11.705 24.2215 16.1037V21.912H39.4617V23.8481H18.5014C14.0725 23.8481 10.1941 26.5101 8.9807 31.5759C7.58092 37.3806 7.5192 41.0035 8.9807 47.0649C10.0639 51.5771 12.6511 54.7914 17.0807 54.7914H22.3212V47.8283C22.3212 42.7976 26.673 38.3607 31.8419 38.3607H47.0649C51.3025 38.3607 54.6847 34.8711 54.6847 30.6162V16.1043C54.6847 11.9734 51.2 8.87084 47.0649 8.18144C44.4455 7.7457 41.7293 7.54759 39.1241 7.55931ZM30.8822 12.2308C32.456 12.2308 33.7423 13.5374 33.7423 15.1445C33.7423 16.7449 32.4567 18.0392 30.8822 18.0392C29.3022 18.0392 28.0228 16.7449 28.0228 15.1445C28.0222 13.5374 29.3022 12.2308 30.8822 12.2308Z" fill="url(#paint0_linear_4_241)"/>
<path d="M56.585 23.8481V30.6162C56.585 35.8623 52.1363 40.2783 47.0643 40.2783H31.8413C27.6716 40.2783 24.2215 43.8475 24.2215 48.0234V62.5365C24.2215 66.6661 27.8123 69.096 31.8413 70.2804C36.6653 71.6981 41.2917 71.9548 47.0643 70.2804C50.9007 69.1688 54.684 66.9334 54.684 62.5365V56.7276H39.4617V54.7908H62.3051C66.734 54.7908 68.3856 51.7018 69.9261 47.0642C71.5172 42.2903 71.4487 37.699 69.9261 31.5753C68.8312 27.1655 66.7408 23.8475 62.3051 23.8475L56.585 23.8481ZM48.0227 60.5998C49.6034 60.5998 50.8828 61.894 50.8828 63.4956C50.8828 65.1016 49.6027 66.4081 48.0227 66.4081C46.4489 66.4081 45.1633 65.1016 45.1633 63.4956C45.1633 61.894 46.4489 60.5998 48.0227 60.5998Z" fill="url(#paint1_linear_4_241)"/>
<path opacity="0.444" d="M60.0579 73.8138C60.0579 76.0005 50.9136 77.7736 39.6345 77.7736C28.3548 77.7736 19.2106 76.0005 19.2106 73.8138C19.2106 71.6265 28.3542 69.8533 39.6345 69.8533C50.9136 69.8533 60.0579 71.6258 60.0579 73.8138Z" fill="url(#paint2_radial_4_241)"/>
<defs>
<linearGradient id="paint0_linear_4_241" x1="6.37979" y1="9.37547" x2="41.531" y2="39.3522" gradientUnits="userSpaceOnUse">
<stop stop-color="#5A9FD4"/>
<stop offset="1" stop-color="#306998"/>
</linearGradient>
<linearGradient id="paint1_linear_4_241" x1="54.7562" y1="57.9862" x2="42.1504" y2="40.3087" gradientUnits="userSpaceOnUse">
<stop stop-color="#FFD43B"/>
<stop offset="1" stop-color="#FFE873"/>
</linearGradient>
<radialGradient id="paint2_radial_4_241" cx="0" cy="0" r="1" gradientUnits="userSpaceOnUse" gradientTransform="translate(39.552 73.7004) rotate(-90) scale(3.96131 17.4132)">
<stop stop-color="#B8B8B8" stop-opacity="0.498"/>
<stop offset="1" stop-color="#7F7F7F" stop-opacity="0"/>
</radialGradient>
</defs>
</svg>
