<svg width="79" height="70" viewBox="0 0 79 70" fill="none" xmlns="http://www.w3.org/2000/svg">
<path d="M39.3559 42.1921C43.4113 42.1921 46.6988 38.9046 46.6988 34.8493C46.6988 30.7939 43.4113 27.5064 39.3559 27.5064C35.3006 27.5064 32.013 30.7939 32.013 34.8493C32.013 38.9046 35.3006 42.1921 39.3559 42.1921Z" fill="#00D8FF"/>
<path fill-rule="evenodd" clip-rule="evenodd" d="M39.8954 19.3715C52.415 19.4568 66.0742 20.3701 75.4504 28.7313C75.7259 28.9773 75.9915 29.2331 76.2506 29.4971C78.4626 31.7517 79.6187 35.392 77.833 38.3879C74.1697 44.5386 65.9775 47.2213 58.0459 48.8725C46.1839 51.342 33.7807 51.3617 21.9236 49.1874C15.1005 47.9346 8.1233 45.7389 3.27452 41.146C1.38715 39.3586 -0.226378 37.0072 0.0261455 34.3901C0.436087 30.1563 4.49778 27.4392 7.91669 25.5993C17.4126 20.4898 28.9827 19.3469 39.8954 19.3715ZM38.9869 21.295C27.1413 21.3753 14.32 22.1313 5.17337 29.7053C4.85361 29.9693 4.54534 30.2464 4.24854 30.5367C4.05669 30.7236 3.87139 30.9187 3.69266 31.1188C2.08733 32.9225 1.53473 35.82 3.04987 37.9861C4.57485 40.1654 6.8902 41.7379 9.27442 43.0202C18.1915 47.8149 28.7286 48.6659 39.0017 48.702C49.4027 48.7397 60.1284 47.7919 69.316 43.0415C72.976 41.1476 77.0951 38.3666 76.9491 34.7853C76.8147 31.4992 73.6106 29.4692 71.2116 28.0196C70.5623 27.6277 69.8949 27.2654 69.2176 26.9243C60.0973 22.3543 49.4093 21.272 38.9869 21.295Z" fill="#00D8FF"/>
<path fill-rule="evenodd" clip-rule="evenodd" d="M55.9405 0.000990296C60.5203 0.117414 62.8931 5.62374 63.2063 9.69036C63.2686 10.4988 63.2915 11.3104 63.2817 12.1221C63.2719 13.001 63.2243 13.88 63.1472 14.7556C62.1814 25.5977 57.231 35.9233 51.4016 45.4585C45.7001 54.7855 38.7475 64.0863 29.2894 68.4087C26.1623 69.8386 22.4434 70.7207 19.6754 69.1253C15.881 66.9395 15.4662 61.8267 15.5367 57.9486C15.5547 56.9959 15.617 56.0432 15.7154 55.0938C17.1732 41.0574 24.2881 27.7606 33.192 16.3052C38.3868 9.62149 44.5671 2.99192 52.2658 0.591305C53.4775 0.212519 54.4401 -0.0170471 55.9405 0.000990296ZM55.7207 1.92279C50.3439 2.00806 45.5165 5.99269 41.2416 10.1331C30.0027 21.0162 21.7202 35.4904 18.3882 50.6697C18.1308 51.8454 17.9143 53.0293 17.7553 54.2214C17.6323 55.1446 17.5421 56.0727 17.4946 57.0041C17.4568 57.7453 17.4437 58.4881 17.4667 59.2309C17.4831 59.8114 17.5208 60.3919 17.5847 60.9691C17.6323 61.4102 17.6962 61.8496 17.7766 62.2858C17.8373 62.6088 17.9078 62.9302 17.9898 63.25C18.057 63.5091 18.1324 63.7665 18.2177 64.0223C18.8884 66.0441 20.6167 67.9758 22.9369 68.0397C28.3498 68.1873 33.4462 64.2404 37.8522 59.9508C45.587 52.4226 51.3508 42.9628 55.8536 33.0193C59.4873 24.991 62.8111 16.2642 60.9549 7.42748C60.8844 7.09297 60.8024 6.76174 60.7089 6.43379C60.6318 6.1665 60.5449 5.9025 60.4498 5.64178C59.7283 3.6757 58.0312 1.91787 55.7207 1.92279Z" fill="#00D8FF"/>
<path fill-rule="evenodd" clip-rule="evenodd" d="M23.1353 0.0731381C28.9795 0.186282 34.2284 4.15287 38.8886 8.59499C47.3924 16.7003 53.6645 27.0112 58.4231 37.8631C62.1093 46.2702 65.5003 55.7071 62.4864 64.5782C61.537 67.374 59.1347 69.932 55.9323 69.9976C50.0603 70.1157 44.6179 65.8457 39.8954 61.2495C28.0481 49.7154 19.2524 34.4885 16.2385 18.3401C16.022 17.1857 15.8499 16.0215 15.7318 14.8523C15.6351 13.898 15.5744 12.9387 15.558 11.9795C15.5449 11.2055 15.5613 10.4315 15.6154 9.66084C15.6515 9.14595 15.7039 8.63435 15.7744 8.12438C15.8417 7.64557 15.9269 7.1684 16.0335 6.69615C16.104 6.38295 16.1827 6.07304 16.2729 5.76476C17.1568 2.74268 19.4557 0.0501814 23.1353 0.0731381ZM22.914 1.99658C19.4918 2.07201 17.9258 6.10747 17.611 8.93934C17.547 9.51982 17.5077 10.1052 17.4896 10.6906C17.4667 11.4383 17.4765 12.1877 17.5142 12.9354C18.0521 23.7563 22.8894 34.2179 28.7269 43.7974C34.2234 52.8162 40.8612 61.7988 49.9914 66.4164C52.6281 67.7495 55.8322 68.7973 58.1099 67.538C60.9664 65.9572 61.3173 62.1907 61.4698 59.3834C61.5108 58.6193 61.5157 57.8519 61.4911 57.0861C61.4616 56.1252 61.3861 55.1659 61.273 54.2116C60.2203 45.2962 56.2717 36.8596 51.7361 28.8871C46.092 18.9698 39.1772 9.08528 29.391 3.92166C27.3643 2.85254 25.1703 1.97854 22.914 1.99658Z" fill="#00D8FF"/>
</svg>
