<svg width="76" height="76" viewBox="0 0 76 76" fill="none" xmlns="http://www.w3.org/2000/svg">
<g clip-path="url(#clip0_4_236)">
<path d="M38.0024 15.2012C27.8688 15.2012 21.5377 20.2659 19.0024 30.3994C22.8012 25.3341 27.2359 23.4347 32.3012 24.7012C35.1933 25.422 37.2602 27.5191 39.5491 29.8431C43.2743 33.6235 47.5861 38 57.0024 38C67.1353 38 73.4671 32.9347 76.0024 22.7988C72.203 27.8671 67.7689 29.7665 62.703 28.5C59.8114 27.7786 57.7469 25.6821 55.4551 23.3581C51.7323 19.5777 47.4216 15.2012 38.0024 15.2012ZM19.0024 38C8.86944 38 2.53769 43.0653 0.00238037 53.2012C3.80119 48.1329 8.23532 46.2335 13.3012 47.5C16.1933 48.2214 18.2602 50.3179 20.5491 52.6419C24.2743 56.4223 28.5861 60.7988 38.0024 60.7988C48.1353 60.7988 54.4671 55.7341 57.0024 45.6006C53.203 50.6659 48.7689 52.5653 43.703 51.2988C40.8114 50.578 38.7469 48.4809 36.4551 46.1569C32.7323 42.3765 28.4216 38 19.0024 38Z" fill="#38BDF8"/>
</g>
<defs>
<clipPath id="clip0_4_236">
<rect width="76" height="76" fill="white"/>
</clipPath>
</defs>
</svg>
